<mxfile host="app.diagrams.net" modified="2023-10-30T20:07:51.759Z" agent="Mozilla/5.0 (X11; Linux x86_64; rv:91.0) Gecko/20100101 Firefox/91.0" etag="pQNyE9pCuVYElVs0540_" version="22.0.8" type="device" pages="4">
  <diagram name="Page-1" id="WSoU7id3tthQANaU0sz_">
    <mxGraphModel dx="1418" dy="152" grid="1" gridSize="10" guides="1" tooltips="1" connect="1" arrows="1" fold="1" page="1" pageScale="1" pageWidth="850" pageHeight="1100" math="0" shadow="0">
      <root>
        <mxCell id="0" />
        <mxCell id="1" parent="0" />
        <mxCell id="8iZBcJuFnyZUX5Pen6wN-1" value="" style="rounded=0;whiteSpace=wrap;html=1;fillColor=none;" parent="1" vertex="1">
          <mxGeometry x="120" y="20" width="240" height="420" as="geometry" />
        </mxCell>
        <mxCell id="8iZBcJuFnyZUX5Pen6wN-2" value="" style="rounded=0;whiteSpace=wrap;html=1;fillColor=none;" parent="1" vertex="1">
          <mxGeometry x="160" y="80" width="160" height="340" as="geometry" />
        </mxCell>
        <mxCell id="8iZBcJuFnyZUX5Pen6wN-3" value="Оперативная память" style="text;html=1;strokeColor=none;fillColor=none;align=center;verticalAlign=middle;whiteSpace=wrap;rounded=0;" parent="1" vertex="1">
          <mxGeometry x="160" y="40" width="160" height="30" as="geometry" />
        </mxCell>
        <mxCell id="8iZBcJuFnyZUX5Pen6wN-4" value="" style="rounded=0;whiteSpace=wrap;html=1;fillColor=none;" parent="1" vertex="1">
          <mxGeometry x="180" y="130" width="120" height="280" as="geometry" />
        </mxCell>
        <mxCell id="8iZBcJuFnyZUX5Pen6wN-5" value="PRM" style="text;html=1;strokeColor=none;fillColor=none;align=center;verticalAlign=middle;whiteSpace=wrap;rounded=0;" parent="1" vertex="1">
          <mxGeometry x="210" y="90" width="60" height="30" as="geometry" />
        </mxCell>
        <mxCell id="8iZBcJuFnyZUX5Pen6wN-6" value="SECS" style="rounded=0;whiteSpace=wrap;html=1;fillColor=none;" parent="1" vertex="1">
          <mxGeometry x="200" y="170" width="80" height="30" as="geometry" />
        </mxCell>
        <mxCell id="8iZBcJuFnyZUX5Pen6wN-7" value="Страница памяти" style="rounded=0;whiteSpace=wrap;html=1;fillColor=none;" parent="1" vertex="1">
          <mxGeometry x="200" y="220" width="80" height="30" as="geometry" />
        </mxCell>
        <mxCell id="8iZBcJuFnyZUX5Pen6wN-8" value="Страница памяти" style="rounded=0;whiteSpace=wrap;html=1;fillColor=none;" parent="1" vertex="1">
          <mxGeometry x="200" y="270" width="80" height="30" as="geometry" />
        </mxCell>
        <mxCell id="8iZBcJuFnyZUX5Pen6wN-9" value="Страница памяти" style="rounded=0;whiteSpace=wrap;html=1;fillColor=none;" parent="1" vertex="1">
          <mxGeometry x="200" y="360" width="80" height="30" as="geometry" />
        </mxCell>
        <mxCell id="8iZBcJuFnyZUX5Pen6wN-10" value="" style="endArrow=none;dashed=1;html=1;dashPattern=1 3;strokeWidth=2;rounded=0;entryX=0.5;entryY=1;entryDx=0;entryDy=0;" parent="1" target="8iZBcJuFnyZUX5Pen6wN-8" edge="1">
          <mxGeometry width="50" height="50" relative="1" as="geometry">
            <mxPoint x="240" y="360" as="sourcePoint" />
            <mxPoint x="450" y="290" as="targetPoint" />
          </mxGeometry>
        </mxCell>
        <mxCell id="8iZBcJuFnyZUX5Pen6wN-11" value="Метаданные&lt;br&gt;страницы" style="rounded=0;whiteSpace=wrap;html=1;fillColor=none;" parent="1" vertex="1">
          <mxGeometry x="440" y="220" width="80" height="30" as="geometry" />
        </mxCell>
        <mxCell id="8iZBcJuFnyZUX5Pen6wN-12" value="Метаданные&lt;br&gt;страницы" style="rounded=0;whiteSpace=wrap;html=1;fillColor=none;" parent="1" vertex="1">
          <mxGeometry x="440" y="170" width="80" height="30" as="geometry" />
        </mxCell>
        <mxCell id="8iZBcJuFnyZUX5Pen6wN-13" value="Метаданные&lt;br&gt;страницы" style="rounded=0;whiteSpace=wrap;html=1;fillColor=none;" parent="1" vertex="1">
          <mxGeometry x="440" y="270" width="80" height="30" as="geometry" />
        </mxCell>
        <mxCell id="8iZBcJuFnyZUX5Pen6wN-14" value="Метаданные&lt;br&gt;страницы" style="rounded=0;whiteSpace=wrap;html=1;fillColor=none;" parent="1" vertex="1">
          <mxGeometry x="440" y="360" width="80" height="30" as="geometry" />
        </mxCell>
        <mxCell id="8iZBcJuFnyZUX5Pen6wN-15" value="EPC" style="text;html=1;strokeColor=none;fillColor=none;align=center;verticalAlign=middle;whiteSpace=wrap;rounded=0;" parent="1" vertex="1">
          <mxGeometry x="210" y="140" width="60" height="30" as="geometry" />
        </mxCell>
        <mxCell id="8iZBcJuFnyZUX5Pen6wN-16" value="EPCM" style="text;html=1;strokeColor=none;fillColor=none;align=center;verticalAlign=middle;whiteSpace=wrap;rounded=0;" parent="1" vertex="1">
          <mxGeometry x="450" y="130" width="60" height="30" as="geometry" />
        </mxCell>
        <mxCell id="8iZBcJuFnyZUX5Pen6wN-17" value="" style="endArrow=none;dashed=1;html=1;dashPattern=1 3;strokeWidth=2;rounded=0;exitX=0.5;exitY=0;exitDx=0;exitDy=0;entryX=0.5;entryY=1;entryDx=0;entryDy=0;" parent="1" source="8iZBcJuFnyZUX5Pen6wN-14" target="8iZBcJuFnyZUX5Pen6wN-13" edge="1">
          <mxGeometry width="50" height="50" relative="1" as="geometry">
            <mxPoint x="400" y="280" as="sourcePoint" />
            <mxPoint x="450" y="230" as="targetPoint" />
          </mxGeometry>
        </mxCell>
        <mxCell id="8iZBcJuFnyZUX5Pen6wN-18" value="" style="endArrow=classic;html=1;rounded=0;exitX=0;exitY=0.5;exitDx=0;exitDy=0;entryX=1;entryY=0.5;entryDx=0;entryDy=0;" parent="1" source="8iZBcJuFnyZUX5Pen6wN-13" target="8iZBcJuFnyZUX5Pen6wN-8" edge="1">
          <mxGeometry width="50" height="50" relative="1" as="geometry">
            <mxPoint x="400" y="280" as="sourcePoint" />
            <mxPoint x="450" y="230" as="targetPoint" />
          </mxGeometry>
        </mxCell>
        <mxCell id="8iZBcJuFnyZUX5Pen6wN-19" value="" style="endArrow=classic;html=1;rounded=0;exitX=0;exitY=0.5;exitDx=0;exitDy=0;entryX=1;entryY=0.5;entryDx=0;entryDy=0;" parent="1" source="8iZBcJuFnyZUX5Pen6wN-14" target="8iZBcJuFnyZUX5Pen6wN-9" edge="1">
          <mxGeometry width="50" height="50" relative="1" as="geometry">
            <mxPoint x="400" y="280" as="sourcePoint" />
            <mxPoint x="450" y="230" as="targetPoint" />
          </mxGeometry>
        </mxCell>
        <mxCell id="8iZBcJuFnyZUX5Pen6wN-20" value="" style="endArrow=classic;html=1;rounded=0;exitX=0;exitY=0.5;exitDx=0;exitDy=0;entryX=1;entryY=0.5;entryDx=0;entryDy=0;" parent="1" source="8iZBcJuFnyZUX5Pen6wN-11" target="8iZBcJuFnyZUX5Pen6wN-7" edge="1">
          <mxGeometry width="50" height="50" relative="1" as="geometry">
            <mxPoint x="400" y="280" as="sourcePoint" />
            <mxPoint x="450" y="230" as="targetPoint" />
          </mxGeometry>
        </mxCell>
        <mxCell id="8iZBcJuFnyZUX5Pen6wN-21" value="" style="endArrow=classic;html=1;rounded=0;exitX=0;exitY=0.5;exitDx=0;exitDy=0;entryX=1;entryY=0.5;entryDx=0;entryDy=0;" parent="1" source="8iZBcJuFnyZUX5Pen6wN-12" target="8iZBcJuFnyZUX5Pen6wN-6" edge="1">
          <mxGeometry width="50" height="50" relative="1" as="geometry">
            <mxPoint x="400" y="190" as="sourcePoint" />
            <mxPoint x="450" y="140" as="targetPoint" />
          </mxGeometry>
        </mxCell>
      </root>
    </mxGraphModel>
  </diagram>
  <diagram id="WCVhnG_kOk8x2wXKCF_K" name="Page-2">
    <mxGraphModel dx="1418" dy="152" grid="1" gridSize="10" guides="1" tooltips="1" connect="1" arrows="1" fold="1" page="1" pageScale="1" pageWidth="850" pageHeight="1100" math="0" shadow="0">
      <root>
        <mxCell id="0" />
        <mxCell id="1" parent="0" />
        <mxCell id="f3-XmzTconxfVzrgas5Y-1" value="Не аллоцирован" style="rounded=0;whiteSpace=wrap;html=1;fillColor=none;" parent="1" vertex="1">
          <mxGeometry x="140" y="20" width="120" height="60" as="geometry" />
        </mxCell>
        <mxCell id="f3-XmzTconxfVzrgas5Y-2" value="Аллоцирован" style="rounded=0;whiteSpace=wrap;html=1;fillColor=none;" parent="1" vertex="1">
          <mxGeometry x="400" y="20" width="120" height="60" as="geometry" />
        </mxCell>
        <mxCell id="f3-XmzTconxfVzrgas5Y-3" value="Инициализирован" style="rounded=0;whiteSpace=wrap;html=1;fillColor=none;" parent="1" vertex="1">
          <mxGeometry x="400" y="200" width="120" height="60" as="geometry" />
        </mxCell>
        <mxCell id="f3-XmzTconxfVzrgas5Y-4" value="Исполняется" style="rounded=0;whiteSpace=wrap;html=1;fillColor=none;" parent="1" vertex="1">
          <mxGeometry x="670" y="250" width="120" height="60" as="geometry" />
        </mxCell>
        <mxCell id="f3-XmzTconxfVzrgas5Y-5" value="" style="endArrow=classic;html=1;rounded=0;exitX=1;exitY=0.5;exitDx=0;exitDy=0;entryX=0;entryY=0.5;entryDx=0;entryDy=0;" parent="1" source="f3-XmzTconxfVzrgas5Y-1" target="f3-XmzTconxfVzrgas5Y-2" edge="1">
          <mxGeometry width="50" height="50" relative="1" as="geometry">
            <mxPoint x="400" y="190" as="sourcePoint" />
            <mxPoint x="450" y="140" as="targetPoint" />
          </mxGeometry>
        </mxCell>
        <mxCell id="f3-XmzTconxfVzrgas5Y-6" value="" style="endArrow=classic;html=1;rounded=0;exitX=0;exitY=0.5;exitDx=0;exitDy=0;entryX=0.5;entryY=1;entryDx=0;entryDy=0;" parent="1" source="f3-XmzTconxfVzrgas5Y-3" target="f3-XmzTconxfVzrgas5Y-1" edge="1">
          <mxGeometry width="50" height="50" relative="1" as="geometry">
            <mxPoint x="400" y="190" as="sourcePoint" />
            <mxPoint x="450" y="140" as="targetPoint" />
          </mxGeometry>
        </mxCell>
        <mxCell id="f3-XmzTconxfVzrgas5Y-7" value="" style="endArrow=classic;html=1;rounded=0;exitX=0.5;exitY=1;exitDx=0;exitDy=0;entryX=0.5;entryY=0;entryDx=0;entryDy=0;" parent="1" source="f3-XmzTconxfVzrgas5Y-2" target="f3-XmzTconxfVzrgas5Y-3" edge="1">
          <mxGeometry width="50" height="50" relative="1" as="geometry">
            <mxPoint x="400" y="190" as="sourcePoint" />
            <mxPoint x="450" y="140" as="targetPoint" />
          </mxGeometry>
        </mxCell>
        <mxCell id="f3-XmzTconxfVzrgas5Y-8" value="Прерван" style="rounded=0;whiteSpace=wrap;html=1;fillColor=none;" parent="1" vertex="1">
          <mxGeometry x="400" y="320" width="120" height="60" as="geometry" />
        </mxCell>
        <mxCell id="f3-XmzTconxfVzrgas5Y-9" value="" style="endArrow=classic;html=1;rounded=0;exitX=1;exitY=0.5;exitDx=0;exitDy=0;entryX=-0.017;entryY=0.383;entryDx=0;entryDy=0;entryPerimeter=0;startArrow=classic;startFill=1;" parent="1" source="f3-XmzTconxfVzrgas5Y-3" target="f3-XmzTconxfVzrgas5Y-4" edge="1">
          <mxGeometry width="50" height="50" relative="1" as="geometry">
            <mxPoint x="400" y="280" as="sourcePoint" />
            <mxPoint x="450" y="230" as="targetPoint" />
          </mxGeometry>
        </mxCell>
        <mxCell id="f3-XmzTconxfVzrgas5Y-10" value="" style="endArrow=classic;startArrow=classic;html=1;rounded=0;entryX=0;entryY=0.5;entryDx=0;entryDy=0;exitX=1;exitY=0.5;exitDx=0;exitDy=0;" parent="1" source="f3-XmzTconxfVzrgas5Y-8" target="f3-XmzTconxfVzrgas5Y-4" edge="1">
          <mxGeometry width="50" height="50" relative="1" as="geometry">
            <mxPoint x="400" y="280" as="sourcePoint" />
            <mxPoint x="450" y="230" as="targetPoint" />
          </mxGeometry>
        </mxCell>
        <mxCell id="f3-XmzTconxfVzrgas5Y-11" value="AEX" style="text;html=1;strokeColor=none;fillColor=none;align=center;verticalAlign=middle;whiteSpace=wrap;rounded=0;rotation=334;" parent="1" vertex="1">
          <mxGeometry x="550" y="295" width="60" height="30" as="geometry" />
        </mxCell>
        <mxCell id="f3-XmzTconxfVzrgas5Y-12" value="ERESUME" style="text;html=1;strokeColor=none;fillColor=none;align=center;verticalAlign=middle;whiteSpace=wrap;rounded=0;rotation=336;" parent="1" vertex="1">
          <mxGeometry x="570" y="317" width="60" height="30" as="geometry" />
        </mxCell>
        <mxCell id="f3-XmzTconxfVzrgas5Y-13" value="EENTER" style="text;html=1;strokeColor=none;fillColor=none;align=center;verticalAlign=middle;whiteSpace=wrap;rounded=0;rotation=17;" parent="1" vertex="1">
          <mxGeometry x="560" y="224" width="60" height="30" as="geometry" />
        </mxCell>
        <mxCell id="f3-XmzTconxfVzrgas5Y-15" value="EEXIT" style="text;html=1;strokeColor=none;fillColor=none;align=center;verticalAlign=middle;whiteSpace=wrap;rounded=0;rotation=17;" parent="1" vertex="1">
          <mxGeometry x="550" y="250" width="60" height="30" as="geometry" />
        </mxCell>
        <mxCell id="f3-XmzTconxfVzrgas5Y-17" value="EINIT" style="text;html=1;strokeColor=none;fillColor=none;align=center;verticalAlign=middle;whiteSpace=wrap;rounded=0;" parent="1" vertex="1">
          <mxGeometry x="470" y="120" width="60" height="30" as="geometry" />
        </mxCell>
        <mxCell id="f3-XmzTconxfVzrgas5Y-18" value="ECREATE" style="text;html=1;strokeColor=none;fillColor=none;align=center;verticalAlign=middle;whiteSpace=wrap;rounded=0;" parent="1" vertex="1">
          <mxGeometry x="290" y="20" width="60" height="30" as="geometry" />
        </mxCell>
        <mxCell id="f3-XmzTconxfVzrgas5Y-19" value="" style="endArrow=none;html=1;rounded=0;entryX=1;entryY=0.25;entryDx=0;entryDy=0;" parent="1" target="f3-XmzTconxfVzrgas5Y-2" edge="1">
          <mxGeometry width="50" height="50" relative="1" as="geometry">
            <mxPoint x="560" y="35" as="sourcePoint" />
            <mxPoint x="450" y="170" as="targetPoint" />
          </mxGeometry>
        </mxCell>
        <mxCell id="f3-XmzTconxfVzrgas5Y-20" value="" style="endArrow=none;html=1;rounded=0;" parent="1" edge="1">
          <mxGeometry width="50" height="50" relative="1" as="geometry">
            <mxPoint x="560" y="66" as="sourcePoint" />
            <mxPoint x="560" y="35" as="targetPoint" />
          </mxGeometry>
        </mxCell>
        <mxCell id="f3-XmzTconxfVzrgas5Y-21" value="" style="endArrow=classic;html=1;rounded=0;entryX=1;entryY=0.75;entryDx=0;entryDy=0;" parent="1" target="f3-XmzTconxfVzrgas5Y-2" edge="1">
          <mxGeometry width="50" height="50" relative="1" as="geometry">
            <mxPoint x="560" y="65" as="sourcePoint" />
            <mxPoint x="450" y="170" as="targetPoint" />
          </mxGeometry>
        </mxCell>
        <mxCell id="f3-XmzTconxfVzrgas5Y-23" value="EADD" style="text;html=1;strokeColor=none;fillColor=none;align=center;verticalAlign=middle;whiteSpace=wrap;rounded=0;" parent="1" vertex="1">
          <mxGeometry x="560" y="38" width="60" height="30" as="geometry" />
        </mxCell>
        <mxCell id="f3-XmzTconxfVzrgas5Y-24" value="EREMOVE" style="text;html=1;strokeColor=none;fillColor=none;align=center;verticalAlign=middle;whiteSpace=wrap;rounded=0;rotation=38;" parent="1" vertex="1">
          <mxGeometry x="290" y="130" width="60" height="30" as="geometry" />
        </mxCell>
      </root>
    </mxGraphModel>
  </diagram>
  <diagram id="NdQ6UDvNHyIe41fG4eeW" name="Page-3">
    <mxGraphModel dx="1418" dy="152" grid="1" gridSize="10" guides="1" tooltips="1" connect="1" arrows="1" fold="1" page="1" pageScale="1" pageWidth="850" pageHeight="1100" math="0" shadow="0">
      <root>
        <mxCell id="0" />
        <mxCell id="1" parent="0" />
        <mxCell id="v1EOqYQaejLMDtb-sLNB-1" value="" style="rounded=0;whiteSpace=wrap;html=1;fillColor=none;" vertex="1" parent="1">
          <mxGeometry x="80" y="160" width="350" height="200" as="geometry" />
        </mxCell>
        <mxCell id="v1EOqYQaejLMDtb-sLNB-2" value="" style="rounded=0;whiteSpace=wrap;html=1;fillColor=none;" vertex="1" parent="1">
          <mxGeometry x="730" y="160" width="340" height="200" as="geometry" />
        </mxCell>
        <mxCell id="v1EOqYQaejLMDtb-sLNB-3" value="" style="rounded=0;whiteSpace=wrap;html=1;fillColor=none;" vertex="1" parent="1">
          <mxGeometry x="510" y="40" width="110" height="50" as="geometry" />
        </mxCell>
        <mxCell id="v1EOqYQaejLMDtb-sLNB-4" value="Утверждающий анклав" style="text;html=1;strokeColor=none;fillColor=none;align=center;verticalAlign=middle;whiteSpace=wrap;rounded=0;" vertex="1" parent="1">
          <mxGeometry x="150" y="170" width="210" height="30" as="geometry" />
        </mxCell>
        <mxCell id="v1EOqYQaejLMDtb-sLNB-5" value="Верифицирующий&lt;span style=&quot;white-space: pre;&quot;&gt;&lt;/span&gt; анклав" style="text;html=1;strokeColor=none;fillColor=none;align=center;verticalAlign=middle;whiteSpace=wrap;rounded=0;" vertex="1" parent="1">
          <mxGeometry x="800" y="170" width="210" height="30" as="geometry" />
        </mxCell>
        <mxCell id="v1EOqYQaejLMDtb-sLNB-6" value="Создать отчёт" style="rounded=0;whiteSpace=wrap;html=1;fillColor=none;" vertex="1" parent="1">
          <mxGeometry x="175" y="220" width="160" height="40" as="geometry" />
        </mxCell>
        <mxCell id="v1EOqYQaejLMDtb-sLNB-7" value="Верифицировать отчёт с помощью REPORT KEY" style="rounded=0;whiteSpace=wrap;html=1;fillColor=none;" vertex="1" parent="1">
          <mxGeometry x="175" y="290" width="160" height="40" as="geometry" />
        </mxCell>
        <mxCell id="v1EOqYQaejLMDtb-sLNB-8" value="Верифицировать отчёт с помощью REPORT KEY" style="rounded=0;whiteSpace=wrap;html=1;fillColor=none;" vertex="1" parent="1">
          <mxGeometry x="825" y="220" width="160" height="40" as="geometry" />
        </mxCell>
        <mxCell id="v1EOqYQaejLMDtb-sLNB-9" value="Создать отчёт" style="rounded=0;whiteSpace=wrap;html=1;fillColor=none;" vertex="1" parent="1">
          <mxGeometry x="825" y="290" width="160" height="40" as="geometry" />
        </mxCell>
        <mxCell id="v1EOqYQaejLMDtb-sLNB-10" value="" style="endArrow=classic;html=1;rounded=0;exitX=0;exitY=0.75;exitDx=0;exitDy=0;entryX=1;entryY=0.75;entryDx=0;entryDy=0;" edge="1" parent="1" source="v1EOqYQaejLMDtb-sLNB-2" target="v1EOqYQaejLMDtb-sLNB-1">
          <mxGeometry width="50" height="50" relative="1" as="geometry">
            <mxPoint x="400" y="250" as="sourcePoint" />
            <mxPoint x="450" y="200" as="targetPoint" />
          </mxGeometry>
        </mxCell>
        <mxCell id="v1EOqYQaejLMDtb-sLNB-11" value="" style="endArrow=classic;html=1;rounded=0;exitX=0.994;exitY=0.395;exitDx=0;exitDy=0;exitPerimeter=0;entryX=-0.006;entryY=0.4;entryDx=0;entryDy=0;entryPerimeter=0;" edge="1" parent="1" source="v1EOqYQaejLMDtb-sLNB-1" target="v1EOqYQaejLMDtb-sLNB-2">
          <mxGeometry width="50" height="50" relative="1" as="geometry">
            <mxPoint x="400" y="250" as="sourcePoint" />
            <mxPoint x="450" y="200" as="targetPoint" />
          </mxGeometry>
        </mxCell>
        <mxCell id="v1EOqYQaejLMDtb-sLNB-12" value="Отчёт" style="text;html=1;strokeColor=none;fillColor=none;align=center;verticalAlign=middle;whiteSpace=wrap;rounded=0;" vertex="1" parent="1">
          <mxGeometry x="500" y="210" width="150" height="30" as="geometry" />
        </mxCell>
        <mxCell id="v1EOqYQaejLMDtb-sLNB-13" value="Отчёт" style="text;html=1;strokeColor=none;fillColor=none;align=center;verticalAlign=middle;whiteSpace=wrap;rounded=0;" vertex="1" parent="1">
          <mxGeometry x="500" y="280" width="150" height="30" as="geometry" />
        </mxCell>
        <mxCell id="v1EOqYQaejLMDtb-sLNB-14" value="REPORT KEY" style="text;html=1;strokeColor=none;fillColor=none;align=center;verticalAlign=middle;whiteSpace=wrap;rounded=0;" vertex="1" parent="1">
          <mxGeometry x="510" y="50" width="110" height="30" as="geometry" />
        </mxCell>
        <mxCell id="v1EOqYQaejLMDtb-sLNB-16" value="" style="endArrow=classic;html=1;rounded=0;exitX=0;exitY=0.5;exitDx=0;exitDy=0;entryX=0.5;entryY=0;entryDx=0;entryDy=0;" edge="1" parent="1" source="v1EOqYQaejLMDtb-sLNB-14" target="v1EOqYQaejLMDtb-sLNB-1">
          <mxGeometry width="50" height="50" relative="1" as="geometry">
            <mxPoint x="400" y="160" as="sourcePoint" />
            <mxPoint x="450" y="110" as="targetPoint" />
          </mxGeometry>
        </mxCell>
        <mxCell id="v1EOqYQaejLMDtb-sLNB-17" value="" style="endArrow=classic;html=1;rounded=0;exitX=1;exitY=0.5;exitDx=0;exitDy=0;entryX=0.5;entryY=0;entryDx=0;entryDy=0;" edge="1" parent="1" source="v1EOqYQaejLMDtb-sLNB-14" target="v1EOqYQaejLMDtb-sLNB-2">
          <mxGeometry width="50" height="50" relative="1" as="geometry">
            <mxPoint x="400" y="160" as="sourcePoint" />
            <mxPoint x="450" y="110" as="targetPoint" />
          </mxGeometry>
        </mxCell>
        <mxCell id="v1EOqYQaejLMDtb-sLNB-18" value="Ключ" style="text;html=1;strokeColor=none;fillColor=none;align=center;verticalAlign=middle;whiteSpace=wrap;rounded=0;rotation=338;" vertex="1" parent="1">
          <mxGeometry x="350" y="80" width="60" height="30" as="geometry" />
        </mxCell>
        <mxCell id="v1EOqYQaejLMDtb-sLNB-19" value="Ключ" style="text;html=1;strokeColor=none;fillColor=none;align=center;verticalAlign=middle;whiteSpace=wrap;rounded=0;rotation=21;" vertex="1" parent="1">
          <mxGeometry x="720" y="80" width="60" height="30" as="geometry" />
        </mxCell>
      </root>
    </mxGraphModel>
  </diagram>
  <diagram id="EWbzByG2mqPz9FljiV1L" name="Page-4">
    <mxGraphModel dx="1418" dy="152" grid="1" gridSize="10" guides="1" tooltips="1" connect="1" arrows="1" fold="1" page="1" pageScale="1" pageWidth="850" pageHeight="1100" math="0" shadow="0">
      <root>
        <mxCell id="0" />
        <mxCell id="1" parent="0" />
        <mxCell id="7Dy5Xu0TnGUe_tvsPUa3-1" value="" style="rounded=0;whiteSpace=wrap;html=1;fillColor=none;" vertex="1" parent="1">
          <mxGeometry x="100" y="70" width="120" height="210" as="geometry" />
        </mxCell>
        <mxCell id="7Dy5Xu0TnGUe_tvsPUa3-2" value="Проверяющийся анклав" style="rounded=0;whiteSpace=wrap;html=1;fillColor=none;" vertex="1" parent="1">
          <mxGeometry x="107.5" y="110" width="105" height="40" as="geometry" />
        </mxCell>
        <mxCell id="7Dy5Xu0TnGUe_tvsPUa3-3" value="Устройство" style="text;html=1;strokeColor=none;fillColor=none;align=center;verticalAlign=middle;whiteSpace=wrap;rounded=0;" vertex="1" parent="1">
          <mxGeometry x="130" y="70" width="60" height="30" as="geometry" />
        </mxCell>
        <mxCell id="7Dy5Xu0TnGUe_tvsPUa3-4" value="" style="rounded=0;whiteSpace=wrap;html=1;fillColor=none;" vertex="1" parent="1">
          <mxGeometry x="400" y="70" width="120" height="60" as="geometry" />
        </mxCell>
        <mxCell id="7Dy5Xu0TnGUe_tvsPUa3-5" value="Третья сторона" style="text;html=1;strokeColor=none;fillColor=none;align=center;verticalAlign=middle;whiteSpace=wrap;rounded=0;" vertex="1" parent="1">
          <mxGeometry x="410" y="85" width="100" height="30" as="geometry" />
        </mxCell>
        <mxCell id="7Dy5Xu0TnGUe_tvsPUa3-6" value="" style="rounded=0;whiteSpace=wrap;html=1;fillColor=none;" vertex="1" parent="1">
          <mxGeometry x="400" y="220" width="120" height="60" as="geometry" />
        </mxCell>
        <mxCell id="7Dy5Xu0TnGUe_tvsPUa3-7" value="Intel Attestation Service" style="text;html=1;strokeColor=none;fillColor=none;align=center;verticalAlign=middle;whiteSpace=wrap;rounded=0;" vertex="1" parent="1">
          <mxGeometry x="415" y="240" width="90" height="30" as="geometry" />
        </mxCell>
        <mxCell id="7Dy5Xu0TnGUe_tvsPUa3-8" value="" style="rounded=0;whiteSpace=wrap;html=1;fillColor=none;" vertex="1" parent="1">
          <mxGeometry x="107.5" y="220" width="105" height="40" as="geometry" />
        </mxCell>
        <mxCell id="7Dy5Xu0TnGUe_tvsPUa3-9" value="" style="endArrow=classic;html=1;rounded=0;exitX=1;exitY=0.214;exitDx=0;exitDy=0;entryX=0;entryY=0.75;entryDx=0;entryDy=0;exitPerimeter=0;" edge="1" parent="1" source="7Dy5Xu0TnGUe_tvsPUa3-1" target="7Dy5Xu0TnGUe_tvsPUa3-4">
          <mxGeometry width="50" height="50" relative="1" as="geometry">
            <mxPoint x="400" y="190" as="sourcePoint" />
            <mxPoint x="450" y="140" as="targetPoint" />
          </mxGeometry>
        </mxCell>
        <mxCell id="7Dy5Xu0TnGUe_tvsPUa3-10" value="" style="endArrow=classic;html=1;rounded=0;exitX=0.75;exitY=0;exitDx=0;exitDy=0;entryX=0.75;entryY=1;entryDx=0;entryDy=0;" edge="1" parent="1" source="7Dy5Xu0TnGUe_tvsPUa3-6" target="7Dy5Xu0TnGUe_tvsPUa3-4">
          <mxGeometry width="50" height="50" relative="1" as="geometry">
            <mxPoint x="400" y="190" as="sourcePoint" />
            <mxPoint x="450" y="140" as="targetPoint" />
          </mxGeometry>
        </mxCell>
        <mxCell id="7Dy5Xu0TnGUe_tvsPUa3-11" value="" style="endArrow=classic;html=1;rounded=0;exitX=0.25;exitY=1;exitDx=0;exitDy=0;entryX=0.25;entryY=0;entryDx=0;entryDy=0;" edge="1" parent="1" source="7Dy5Xu0TnGUe_tvsPUa3-4" target="7Dy5Xu0TnGUe_tvsPUa3-6">
          <mxGeometry width="50" height="50" relative="1" as="geometry">
            <mxPoint x="400" y="190" as="sourcePoint" />
            <mxPoint x="450" y="140" as="targetPoint" />
          </mxGeometry>
        </mxCell>
        <mxCell id="7Dy5Xu0TnGUe_tvsPUa3-12" value="Отчёт" style="text;html=1;strokeColor=none;fillColor=none;align=center;verticalAlign=middle;whiteSpace=wrap;rounded=0;rotation=-90;" vertex="1" parent="1">
          <mxGeometry x="90" y="170" width="60" height="30" as="geometry" />
        </mxCell>
        <mxCell id="7Dy5Xu0TnGUe_tvsPUa3-13" value="" style="endArrow=classic;html=1;rounded=0;exitX=0.25;exitY=1;exitDx=0;exitDy=0;entryX=0.25;entryY=0;entryDx=0;entryDy=0;" edge="1" parent="1" source="7Dy5Xu0TnGUe_tvsPUa3-2" target="7Dy5Xu0TnGUe_tvsPUa3-8">
          <mxGeometry width="50" height="50" relative="1" as="geometry">
            <mxPoint x="400" y="190" as="sourcePoint" />
            <mxPoint x="450" y="140" as="targetPoint" />
          </mxGeometry>
        </mxCell>
        <mxCell id="7Dy5Xu0TnGUe_tvsPUa3-14" value="" style="endArrow=classic;html=1;rounded=0;exitX=0.75;exitY=0;exitDx=0;exitDy=0;entryX=0.75;entryY=1;entryDx=0;entryDy=0;" edge="1" parent="1" source="7Dy5Xu0TnGUe_tvsPUa3-8" target="7Dy5Xu0TnGUe_tvsPUa3-2">
          <mxGeometry width="50" height="50" relative="1" as="geometry">
            <mxPoint x="400" y="190" as="sourcePoint" />
            <mxPoint x="450" y="140" as="targetPoint" />
          </mxGeometry>
        </mxCell>
      </root>
    </mxGraphModel>
  </diagram>
</mxfile>
